<svg xmlns="http://www.w3.org/2000/svg" width="16" height="16" fill="none"  xmlns:v="https://vecta.io/nano"><rect x=".5" y=".5" width="15" height="15" rx="7.5" fill="#fff"/><path d="M5.4 4.836V3.432H3.696v1.404H5.4zm-1.704.96V12H5.4V5.796H3.696zm4.558 3.108c0-.248.024-.492.072-.732s.128-.452.24-.636a1.38 1.38 0 0 1 .468-.444c.192-.12.432-.18.72-.18s.528.06.72.18a1.25 1.25 0 0 1 .468.444c.12.184.204.396.252.636s.072.484.072.732-.024.492-.072.732c-.048.232-.132.444-.252.636a1.25 1.25 0 0 1-.468.444c-.192.112-.432.168-.72.168s-.528-.056-.72-.168a1.38 1.38 0 0 1-.468-.444c-.112-.192-.192-.404-.24-.636-.048-.24-.072-.484-.072-.732zm-1.704 0c0 .496.076.944.228 1.344s.368.744.648 1.032c.28.28.616.496 1.008.648s.832.228 1.32.228.928-.076 1.32-.228c.4-.152.74-.368 1.02-.648.28-.288.496-.632.648-1.032s.228-.848.228-1.344-.076-.944-.228-1.344c-.152-.408-.368-.752-.648-1.032-.28-.288-.62-.508-1.02-.66-.392-.16-.832-.24-1.32-.24s-.928.08-1.32.24c-.392.152-.728.372-1.008.66-.28.28-.496.624-.648 1.032-.152.4-.228.848-.228 1.344z" fill="#000"/><rect x=".5" y=".5" width="15" height="15" rx="7.5" stroke="#000"/></svg>